<svg width="50" height="50" viewBox="0 0 50 50" fill="none" xmlns="http://www.w3.org/2000/svg">
<g clip-path="url(#clip0_28_2)">
<path d="M25 1.09278e-06C38.8086 1.69638e-06 50 11.1914 50 25C50 38.8086 38.8086 50 25 50C11.1914 50 -1.69638e-06 38.8086 -1.09278e-06 25C-4.89192e-07 11.1914 11.1914 4.89192e-07 25 1.09278e-06ZM12.6172 24.0332C12.8613 24.6191 13.4277 25 14.0625 25L20.3125 25L20.3125 34.375C20.3125 36.1006 21.7119 37.5 23.4375 37.5L26.5625 37.5C28.2881 37.5 29.6875 36.1006 29.6875 34.375L29.6875 25L35.9375 25C36.5692 25 37.1396 24.62 37.3809 24.0356C37.6234 23.4513 37.4892 22.7798 37.0421 22.3325L26.1046 11.395C25.4944 10.7849 24.505 10.7849 23.8956 11.395L12.9581 22.3325C12.5098 22.7832 12.373 23.4473 12.6172 24.0332Z" fill="#272727"/>
</g>
<defs>
<clipPath id="clip0_28_2">
<rect width="50" height="50" fill="white" transform="matrix(-4.37114e-08 1 1 4.37114e-08 0 0)"/>
</clipPath>
</defs>
</svg>
